<?xml version="1.0" encoding="UTF-8"?><svg id="Layer_2" xmlns="http://www.w3.org/2000/svg" viewBox="0 0 1077.85 1077.85"><defs><style>.cls-1{fill:#fefefe;}.cls-1,.cls-2,.cls-3,.cls-4,.cls-5,.cls-6,.cls-7,.cls-8,.cls-9,.cls-10,.cls-11{stroke-width:0px;}.cls-2{fill:#3cb0f3;}.cls-3{fill:#c8edf5;}.cls-4{fill:#0c325e;}.cls-5{fill:#0a305e;}.cls-6{fill:#60c3f8;}.cls-7{fill:#1679cf;}.cls-8{fill:#2a98e6;}.cls-9{fill:#93d9fb;}.cls-10{fill:#010d34;}.cls-11{fill:#1080de;}</style></defs><g id="Layer_2-2"><circle class="cls-10" cx="538.92" cy="538.92" r="538.92"/><path class="cls-5" d="m289.49,885.2c-37.46,2.44-63.67-35.44-63.84-63.66-.2-32.43,29-64.36,64.11-63.89,37.92.51,65.18,26.35,65.8,63.38.55,33.01-27.5,65.61-66.06,64.17Z"/><path class="cls-8" d="m455.04,882.59c-37.46,2.44-63.67-35.44-63.84-63.66-.2-32.43,29-64.36,64.11-63.89,37.92.51,65.18,26.35,65.8,63.38.55,33.01-27.5,65.61-66.06,64.17Z"/><path class="cls-6" d="m620.59,882.59c-37.46,2.44-63.67-35.44-63.84-63.66-.2-32.43,29-64.36,64.11-63.89,37.92.51,65.18,26.35,65.8,63.38.55,33.01-27.5,65.61-66.06,64.17Z"/><path class="cls-1" d="m786.14,882.59c-37.46,2.44-63.67-35.44-63.84-63.66-.2-32.43,29-64.36,64.11-63.89,37.92.51,65.18,26.35,65.8,63.38.55,33.01-27.5,65.61-66.06,64.17Z"/><path class="cls-4" d="m311.05,934.34h0c139.33,80.27,316.36,80.19,455.61-.2l.13-.08-455.74.27Z"/><path class="cls-9" d="m413.45,721.9c-71.6.02-143.2.1-214.81-.03-24.25-.05-37.84-11.88-38.09-32.4-.24-19.54,14.77-32.97,38.15-33.02,141.78-.25,283.56-.37,425.34-.32,24.39,0,38.86,10.71,40.76,28.76,2.21,20.98-12.58,36.88-35.12,36.93-72.08.16-144.15.06-216.23.08Z"/><rect class="cls-5" x="698.68" y="656.12" width="218.63" height="65.82" rx="32.91" ry="32.91"/><path class="cls-1" d="m581.39,280.65c50.54,12.68,86.17,43.21,104.41,91.74,18.95,50.44,9.83,112.72-39.19,154.97-3.21,2.77-5.37,3.02-9.02.73-12.23-7.69-25.64-12.55-40.06-13.89-4.87-.45-6.69-2.39-8.24-6.9-18.24-52.85-56.17-82.51-110.27-93.01-5.07-.98-10.35.47-15.24-1.72.05-1.44.31-2.91.12-4.31-6.15-44.71,10.77-79.66,46.15-105.97,20.92-15.56,45.42-21.49,71.34-21.64Z"/><path class="cls-11" d="m581.39,280.65c-25.93.15-50.42,6.08-71.34,21.64-35.38,26.3-52.3,61.26-46.15,105.97.19,1.4-.07,2.87-.12,4.31-24.29.32-48.48,1.08-70.54,13.35-5.96,3.32-6.09-1.1-6.18-5.19-.66-31.04,7.4-59.48,25.91-84.56,32.37-43.86,76.38-64.44,130.47-63.82,13.05.15,26.17,1.57,37.95,8.31Z"/><path class="cls-8" d="m818.17,602.56c-11.93.11-23.86.48-35.78.25-9.41-.18-17.79-7.57-20.68-17.32-5.64-19.03,8.63-39.19,28.8-40.21,10.75-.55,21.54-.53,32.31-.41,5.76.06,9.38-1.66,12.53-7.06,8.68-14.9,22.66-20.93,39.3-18.49,16.48,2.42,26.87,12.85,31.26,29.02.22,5.05-1.31,6.08-7.01,6.08-12.95,0-26.36-.22-38.42,5.76-18.8,9.32-33.41,23.06-42.3,42.38Z"/><path class="cls-7" d="m818.17,602.56c8.89-19.32,23.5-33.06,42.3-42.38,12.06-5.98,25.47-5.76,38.42-5.76,5.7,0,7.24-1.04,7.01-6.08,1.26,6.4,5.31,7.62,11.35,7.2,7.82-.54,15.78-.6,23.56.25,10.76,1.17,20.65,9.99,22.46,19.42,1.79,9.33-.71,17.3-8.77,23.08-3.93,2.82-8.33,4.47-13.04,4.47-41.1.03-82.2-.11-123.3-.19Z"/><path class="cls-3" d="m356.16,456.75c-9.34,3.79-16.24,8.47-20.59,16.88-7.38,14.24.9,37.45,22.07,36.58,9.7-.4,16.29-1.34,21.9-11.77,13.04-24.24,36-35.52,62.49-40,53.8-9.09,108.6,27.65,119.5,80.03.3,1.42.62,2.85.8,4.29,2.01,16.32,2.01,16.2,18.28,16.36,14.56.14,29.22-1.14,43.63,1.73,21.6,4.31,39.01,15.04,50.04,34.65,4.26,7.57,3.33,9.02-5.12,9.02-178.49.04-356.98.07-535.47.06-13.28,0-18.79-5.85-19.57-20.14-2.34-43.39,29.81-84.32,72.99-89.61,16.41-2.01,24.63-6.69,32.04-22.87,21.97-47.97,90.02-59.02,128.66-22.99,2.53,2.36,5.06,4.73,8.32,7.78Z"/><g id="_Radial_Repeat_"><rect class="cls-2" x="186.51" y="297.23" width="140.51" height="51.66" rx="23.41" ry="23.41" transform="translate(327.3 729.66) rotate(-151.36)"/></g><g id="_Radial_Repeat_-2"><rect class="cls-2" x="258.69" y="207.38" width="140.51" height="51.66" rx="23.41" ry="23.41" transform="translate(368.1 634.53) rotate(-130.91)"/></g><g id="_Radial_Repeat_-3"><rect class="cls-2" x="357.71" y="148.42" width="140.51" height="51.66" rx="23.41" ry="23.41" transform="translate(414.26 636.12) rotate(-110.45)"/></g><g id="_Radial_Repeat_-4"><rect class="cls-2" x="471.09" y="127.78" width="140.51" height="51.66" rx="23.41" ry="23.41" transform="translate(387.74 694.96) rotate(-90)"/></g><g id="_Radial_Repeat_-5"><rect class="cls-2" x="584.54" y="148.07" width="140.51" height="51.66" rx="23.41" ry="23.41" transform="translate(263.04 726.64) rotate(-69.55)"/></g><g id="_Radial_Repeat_-6"><rect class="cls-2" x="683.75" y="206.72" width="140.51" height="51.66" rx="23.41" ry="23.41" transform="translate(84.49 650.1) rotate(-49.09)"/></g><g id="_Radial_Repeat_-7"><rect class="cls-2" x="756.2" y="296.34" width="140.51" height="51.66" rx="23.41" ry="23.41" transform="translate(-53.31 435.49) rotate(-28.64)"/></g><path class="cls-2" d="m254.03,411.19l-76.18-10.95c-12.8-1.84-24.67,7.04-26.51,19.84l-.69,4.78c-1.84,12.8,7.04,24.67,19.84,26.51l27.92,4.01c10.04-22.6,30.68-39.43,55.61-44.2Z"/><path class="cls-2" d="m815.99,463.91c14.07-16.78,35.17-27.45,58.78-27.45,15.74,0,30.37,4.75,42.54,12.88,10.45-3.56,17.23-14.16,15.6-25.48l-.69-4.78c-1.84-12.8-13.71-21.68-26.51-19.84l-92.73,13.33c-12.8,1.84-21.68,13.71-19.84,26.51l.69,4.78c1.63,11.33,11.12,19.59,22.16,20.06Z"/></g></svg>